<?xml version="1.0" encoding="UTF-8" standalone="no"?> <svg height="512pt" viewBox="0 -31 512 512" width="512pt" xmlns="http://www.w3.org/2000/svg"><path d="m391 180h30v30h-30zm0 0"/><path d="m391 300h30v30h-30zm0 0"/><path d="m91 180h30v30h-30zm0 0"/><path d="m91 300h30v30h-30zm0 0"/><path d="m512 360h-31v-210h31v-90h-61v-60h-90v60h-210v-60h-90v60h-61v90h31v210h-31v90h512zm-121-330h30v30h-30zm-300 0h30v30h-30zm-61 90v-30h452v30zm421 30v210h-90v-210zm-120 0v210h-150v-210zm-180 0v210h-90v-210zm331 270h-452v-30h452zm0 0"/><path d="m214.285156 320.628906 23.429688 18.742188 79.496094-99.371094h-60l40.503906-50.628906-23.429688-18.742188-79.496094 99.371094h60zm0 0"/></svg>